<svg id="logo_svg_top" version="1.1" xmlns="http://www.w3.org/2000/svg" xmlns:xlink="http://www.w3.org/1999/xlink" viewBox="0 0 141.73 141.73" enable-background="new 0 0 141.73 141.73" xml:space="preserve">
						<g>
								<path fill="rgb(255,255,255)" clip-rule="evenodd" d="M70.757,141.693l-1.954-17.932c-6.303-4.483-14.629-8.391-22.01-6.774
								c-7.481,1.316-10.144,12.369-18.2,10.651c2.73-5.358,9.034-13.548,8.831-21.032c-4.786-6.438-8.561-15.332-17.595-15.908
								C15.077,88.813,9.618,91.778,5,90.093l0.405-0.642c5.526-5.056,14.795-3.91,19.144-10.582c0.607-9.606,4.315-20.729-3.506-29.459
								c-2.055-3.876-7.144-5.191-8.054-10.044c6.841-1.448,13.077,7.078,19.448,5.898c4.348-3.943,8.054-10.987,6.471-17.526
								c0.472-4.315-4.213-8.326-3.573-12.674l0.54-0.27l7.077,5.73c1.888,2.898,2.663,7.786,6.641,8.494
								c7.449-0.708,14.797-4.651,19.212-11.292C72.442,12.134,69.477,4.583,73.961,0l0.369,0.168c5.865,8.46-0.336,17.93,4.549,25.548
								c-16.311,1.28-36.196,9.336-44.387,24.571c-7.078,13.955-7.583,28.312-1.045,42.534c6.269,10.717,16.145,19.617,29.896,21.707
								c11.391,2.459,26.595-1.415,34.11-11.493c7.616-10.651,10.213-24.098,7.043-35.93c-2.63-7.852-7.415-14.29-12.807-19.11
								c7.212,3.438,12.738-1.888,18.637-6.504c3.439-2.393,10.078-7.011,14.831-5.123c-8.255,5.796-16.918,10.919-19.65,21.503
								c0.843,6.909,2.561,15.268,8.663,19.817c7.281,4.621,19.11-0.909,24.535,8.192c-9.47-0.978-20.829-1.955-30.466,3.235
								c-2.598,4.549-3.575,9.707-4.855,14.492c-0.773,3.775,1.044,7.89,3.101,11.629c4.181,3.002,9.739,9.875,8.055,15.806h-0.573
								c-5.898-6.3-11.19-11.56-18.399-16.951c-4.588-1.178-10.315,1.35-13.955,4.651c-9.169,4.684-2.463,17.494-10.347,22.951H70.757z
								 M70.185,113.113c-7.684-0.843-16.987-2.998-23.796-8.732C36.009,96.396,29.031,80.926,31.324,67.68
								c1.315-8.629,5.46-18.27,11.83-24.504c9.269-9.269,25.278-14.594,37.885-14.459c1.211,0.303,2.594,1.213,3.235,2.528
								c1.484,3.808-0.2,8.964,3.235,11.931c-8.188,5.359-19.077-11.021-24.098-0.372c-3.371,6.168-11.562,5.73-17.865,6.505
								c-0.708,8.629-0.335,18.84-8.122,26.222c-0.978,1.722,1.045,2.933,2.156,4.111c6.034,4.282,8.696,13.784,9.472,20.999l0.54,0.843
								c6.741,0.438,14.089-0.204,19.616,5.122c0.978,0.776,2.663,2.731,4.754,2.731c4.648-5.931,10.313-9.302,18.505-9.943
								c-1.955-8.594,4.411-13.245,7.985-19.18c-3.771-5.457-4.921-10.042-3.641-16.041c-6.807-1.112-11.19-4.988-14.562-10.449
								c-4.482,2.46-9.536,2.056-14.087-0.91c-2.594,3.876-5.594,7.146-8.897,10.247c-3.911,4.483-5.528,10.854-4.213,16.581
								c1.483,5.733,5.258,9.473,10.517,12.136c4.616,1.955,10.313,1.043,15.065-1.484c4.348-2.864,7.415-8.394,7.146-13.953
								c-0.843-5.46-4.147-10.786-10.013-12.437c-4.009-0.843-9.67,0.337-12.536,4.111c-2.663,3.843-2.663,7.987-0.27,12.2
								c1.112,2.43,3.843,4.181,6.774,4.553c2.595,0,5.9-1.146,7.414-3.371c1.485-2.459,1.89-4.618,0.777-7.08
								c-1.047-2.356-3.91-4.144-6.909-3.638c-1.282,0.337-3.54,0.978-4.078,2.865c-0.507,1.215,0,2.798,0.539,4.213
								c0.708,0.708,2.663,1.887,3.945,1.113c0.572,0,0.572-0.843,0.908-1.383l-0.336-0.773c-0.236-0.27-0.978-0.372-1.552-0.843
								c-0.303-0.507-0.303-1.182,0-2.024c0.979-0.303,1.888-0.303,3.271-0.102c0.941,0.776,1.922,2.126,1.55,3.943
								c-0.405,1.554-1.182,2.527-2.528,3.509c-2.021,0.605-5.257,0-6.638-1.755c-1.686-2.188-2.023-5.125-0.978-7.988
								c1.313-2.19,3.639-3.909,6.639-4.751c2.594-0.202,6.168,0.978,8.188,3.066c2.598,3.371,3.674,7.919,1.988,12.034
								c-1.988,4.65-6.941,7.719-12.065,7.854c-3.708,0-8.189-1.89-10.582-5.158c-3.505-3.943-4.55-10.651-2.022-15.774
								c2.022-5.123,7.146-9.099,13.177-10.077c4.82-0.708,11.631,2.158,15.066,5.931c5.155,6.303,5.461,14.664,3.338,21.944
								c-2.021,3.37-3.91,6.504-7.146,9.032c-7.686,5.022-16.112,5.022-24.166,0.707c-6.371-3.439-11.326-11.493-12.236-19.482
								c-0.91-7.853,3.843-17.525,9.741-23.458c6.909-6.876,17.29-8.056,26.052-5.898c8.663,3.303,14.628,9.539,18.472,18.302
								c4.078,11.963,0.777,27.301-8.123,37.38c-5.188,5.964-14.562,9.334-22.481,10.009H70.185z M72.982,106.475l-5.864-4.352
								l10.987-0.773L72.982,106.475z M57.175,99.596c-1.82-0.606-3.978,0.138-5.595-1.113l-1.146-5.931l8.291,6.438L57.175,99.596z
								 M84.544,98.482l5.967-6.839l-0.572,5.931c-1.316,0.135-2.937,0.135-4.318,0.908H84.544z M94.553,84.194l0.135-8.831l2.9,4.852
								c0,1.587-1.686,2.226-2.863,3.476L94.553,84.194z M45.546,81.802l-5.056-5.461l3.945-6.843L45.546,81.802z M93.645,69.498
								l-2.09-4.718l3.133,2.057c-0.806,0.708,0.037,1.685-0.806,2.426L93.645,69.498z M47.704,60.264c-0.91-1.92,0-4.853-0.405-7.449
								l8.056-2.09L47.704,60.264z M64.186,45.737l4.246-4.82l4.721,2.46L64.186,45.737z"/>
						</g>
					</svg>
